<svg width="179" height="27" viewBox="0 0 179 27" fill="none" xmlns="http://www.w3.org/2000/svg">
<path d="M18.476 0.512C18.38 1.352 18.308 2.168 18.26 2.96C18.236 3.752 18.224 4.352 18.224 4.76C18.224 5.192 18.236 5.612 18.26 6.02C18.284 6.404 18.308 6.728 18.332 6.992H17.504C17.36 5.576 17.156 4.46 16.892 3.644C16.628 2.804 16.172 2.216 15.524 1.88C14.9 1.52 13.952 1.34 12.68 1.34H9.692C8.876 1.34 8.252 1.412 7.82 1.556C7.412 1.676 7.136 1.952 6.992 2.384C6.848 2.792 6.776 3.44 6.776 4.328V22.184C6.776 23.048 6.848 23.696 6.992 24.128C7.136 24.56 7.412 24.848 7.82 24.992C8.252 25.112 8.876 25.172 9.692 25.172H12.32C13.832 25.172 14.972 24.968 15.74 24.56C16.532 24.152 17.096 23.492 17.432 22.58C17.792 21.644 18.056 20.384 18.224 18.8H19.052C18.98 19.448 18.944 20.312 18.944 21.392C18.944 21.848 18.956 22.508 18.98 23.372C19.028 24.212 19.1 25.088 19.196 26C17.972 25.952 16.592 25.928 15.056 25.928C13.52 25.904 12.152 25.892 10.952 25.892C10.424 25.892 9.74 25.892 8.9 25.892C8.084 25.892 7.196 25.904 6.236 25.928C5.276 25.928 4.304 25.94 3.32 25.964C2.336 25.964 1.4 25.976 0.512 26V25.28C1.328 25.232 1.94 25.136 2.348 24.992C2.78 24.848 3.068 24.56 3.212 24.128C3.356 23.696 3.428 23.048 3.428 22.184V4.328C3.428 3.44 3.356 2.792 3.212 2.384C3.068 1.952 2.78 1.664 2.348 1.52C1.94 1.352 1.328 1.256 0.512 1.232V0.512C1.4 0.536 2.336 0.559999 3.32 0.583999C4.304 0.583999 5.276 0.595999 6.236 0.619998C7.196 0.619998 8.084 0.619998 8.9 0.619998C9.74 0.619998 10.424 0.619998 10.952 0.619998C12.056 0.619998 13.304 0.619998 14.696 0.619998C16.112 0.595999 17.372 0.559999 18.476 0.512ZM12.284 12.824C12.284 12.824 12.284 12.944 12.284 13.184C12.284 13.424 12.284 13.544 12.284 13.544H5.696C5.696 13.544 5.696 13.424 5.696 13.184C5.696 12.944 5.696 12.824 5.696 12.824H12.284ZM13.328 8.072C13.232 9.44 13.184 10.484 13.184 11.204C13.208 11.924 13.22 12.584 13.22 13.184C13.22 13.784 13.232 14.444 13.256 15.164C13.28 15.884 13.34 16.928 13.436 18.296H12.608C12.512 17.528 12.392 16.784 12.248 16.064C12.128 15.32 11.84 14.72 11.384 14.264C10.952 13.784 10.208 13.544 9.152 13.544V12.824C9.944 12.824 10.544 12.668 10.952 12.356C11.384 12.02 11.696 11.6 11.888 11.096C12.08 10.592 12.212 10.076 12.284 9.548C12.356 8.996 12.428 8.504 12.5 8.072H13.328ZM44.5175 0.512V1.232C43.7015 1.256 43.0775 1.376 42.6455 1.592C42.2375 1.808 41.9615 2.156 41.8175 2.636C41.6735 3.116 41.6015 3.8 41.6015 4.688V15.524C41.6015 17.204 41.4935 18.668 41.2775 19.916C41.0615 21.164 40.6775 22.244 40.1255 23.156C39.5255 24.164 38.6495 24.98 37.4975 25.604C36.3455 26.204 35.0255 26.504 33.5375 26.504C32.3855 26.504 31.2815 26.36 30.2255 26.072C29.1935 25.808 28.2815 25.304 27.4895 24.56C26.7935 23.888 26.2415 23.18 25.8335 22.436C25.4495 21.692 25.1855 20.78 25.0415 19.7C24.8975 18.62 24.8255 17.264 24.8255 15.632V4.328C24.8255 3.44 24.7535 2.792 24.6095 2.384C24.4655 1.952 24.1775 1.664 23.7455 1.52C23.3375 1.352 22.7255 1.256 21.9095 1.232V0.512C22.4135 0.536 23.0735 0.559999 23.8895 0.583999C24.7055 0.607999 25.5815 0.619998 26.5175 0.619998C27.3575 0.619998 28.1855 0.607999 29.0015 0.583999C29.8415 0.559999 30.5375 0.536 31.0895 0.512V1.232C30.2735 1.256 29.6495 1.352 29.2175 1.52C28.8095 1.664 28.5335 1.952 28.3895 2.384C28.2455 2.792 28.1735 3.44 28.1735 4.328V16.244C28.1735 17.468 28.2335 18.632 28.3535 19.736C28.4735 20.816 28.7135 21.776 29.0735 22.616C29.4575 23.432 30.0335 24.08 30.8015 24.56C31.5695 25.016 32.5895 25.244 33.8615 25.244C35.6855 25.244 37.0895 24.848 38.0735 24.056C39.0815 23.24 39.7775 22.124 40.1615 20.708C40.5695 19.292 40.7735 17.696 40.7735 15.92V4.688C40.7735 3.8 40.6655 3.116 40.4495 2.636C40.2575 2.156 39.9215 1.808 39.4415 1.592C38.9615 1.376 38.3135 1.256 37.4975 1.232V0.512C37.9295 0.536 38.4935 0.559999 39.1895 0.583999C39.9095 0.607999 40.5695 0.619998 41.1695 0.619998C41.7935 0.619998 42.4055 0.607999 43.0055 0.583999C43.6295 0.559999 44.1335 0.536 44.5175 0.512ZM46.9886 0.512C47.4926 0.536 48.1526 0.559999 48.9686 0.583999C49.7846 0.607999 50.5886 0.619998 51.3806 0.619998C52.5086 0.619998 53.5886 0.607999 54.6206 0.583999C55.6526 0.559999 56.3846 0.547999 56.8166 0.547999C59.7206 0.547999 61.8926 1.208 63.3326 2.528C64.7726 3.848 65.4926 5.552 65.4926 7.64C65.4926 8.504 65.3486 9.416 65.0606 10.376C64.7726 11.312 64.2686 12.188 63.5486 13.004C62.8526 13.796 61.8926 14.444 60.6686 14.948C59.4446 15.452 57.8966 15.704 56.0246 15.704H52.5686V14.984H55.6646C57.3686 14.984 58.6646 14.66 59.5526 14.012C60.4646 13.364 61.0766 12.512 61.3886 11.456C61.7246 10.4 61.8926 9.26 61.8926 8.036C61.8926 5.756 61.4366 4.052 60.5246 2.924C59.6366 1.796 58.1006 1.232 55.9166 1.232C54.8126 1.232 54.0926 1.436 53.7566 1.844C53.4206 2.252 53.2526 3.08 53.2526 4.328V22.184C53.2526 23.048 53.3366 23.696 53.5046 24.128C53.6966 24.56 54.0566 24.848 54.5846 24.992C55.1126 25.136 55.8806 25.232 56.8886 25.28V26C56.2646 25.952 55.4726 25.928 54.5126 25.928C53.5526 25.904 52.5806 25.892 51.5966 25.892C50.6606 25.892 49.7846 25.904 48.9686 25.928C48.1526 25.928 47.4926 25.952 46.9886 26V25.28C47.8046 25.232 48.4166 25.136 48.8246 24.992C49.2566 24.848 49.5446 24.56 49.6886 24.128C49.8326 23.696 49.9046 23.048 49.9046 22.184V4.328C49.9046 3.44 49.8326 2.792 49.6886 2.384C49.5446 1.952 49.2566 1.664 48.8246 1.52C48.4166 1.352 47.8046 1.256 46.9886 1.232V0.512ZM83.0952 26V25.28C83.9112 25.232 84.5232 25.136 84.9312 24.992C85.3632 24.848 85.6512 24.56 85.7952 24.128C85.9392 23.696 86.0112 23.048 86.0112 22.184V4.328C86.0112 3.44 85.9392 2.792 85.7952 2.384C85.6512 1.952 85.3632 1.664 84.9312 1.52C84.5232 1.352 83.9112 1.256 83.0952 1.232V0.512C83.6472 0.536 84.3432 0.559999 85.1832 0.583999C86.0232 0.607999 86.8512 0.619998 87.6672 0.619998C88.6032 0.619998 89.4792 0.607999 90.2952 0.583999C91.1112 0.559999 91.7712 0.536 92.2752 0.512V1.232C91.4592 1.256 90.8352 1.352 90.4032 1.52C89.9952 1.664 89.7192 1.952 89.5752 2.384C89.4312 2.792 89.3592 3.44 89.3592 4.328V22.184C89.3592 23.048 89.4312 23.696 89.5752 24.128C89.7192 24.56 89.9952 24.848 90.4032 24.992C90.8352 25.136 91.4592 25.232 92.2752 25.28V26C91.7712 25.952 91.1112 25.928 90.2952 25.928C89.4792 25.904 88.6032 25.892 87.6672 25.892C86.8512 25.892 86.0232 25.904 85.1832 25.928C84.3432 25.928 83.6472 25.952 83.0952 26ZM68.0472 26V25.28C68.8632 25.232 69.4752 25.136 69.8832 24.992C70.3152 24.848 70.6032 24.56 70.7472 24.128C70.8912 23.696 70.9632 23.048 70.9632 22.184V4.328C70.9632 3.44 70.8912 2.792 70.7472 2.384C70.6032 1.952 70.3152 1.664 69.8832 1.52C69.4752 1.352 68.8632 1.256 68.0472 1.232V0.512C68.5512 0.536 69.2112 0.559999 70.0272 0.583999C70.8432 0.607999 71.7192 0.619998 72.6552 0.619998C73.4952 0.619998 74.3232 0.607999 75.1392 0.583999C75.9792 0.559999 76.6752 0.536 77.2272 0.512V1.232C76.4112 1.256 75.7872 1.352 75.3552 1.52C74.9472 1.664 74.6712 1.952 74.5272 2.384C74.3832 2.792 74.3112 3.44 74.3112 4.328V22.184C74.3112 23.048 74.3832 23.696 74.5272 24.128C74.6712 24.56 74.9472 24.848 75.3552 24.992C75.7872 25.136 76.4112 25.232 77.2272 25.28V26C76.6752 25.952 75.9792 25.928 75.1392 25.928C74.3232 25.904 73.4952 25.892 72.6552 25.892C71.7192 25.892 70.8432 25.904 70.0272 25.928C69.2112 25.928 68.5512 25.952 68.0472 26ZM73.0512 13.544V12.824H87.2712V13.544H73.0512ZM106.856 0.00799775C109.136 0.00799775 111.128 0.523998 112.832 1.556C114.56 2.588 115.892 4.076 116.828 6.02C117.788 7.94 118.268 10.28 118.268 13.04C118.268 15.728 117.776 18.08 116.792 20.096C115.832 22.112 114.488 23.684 112.76 24.812C111.032 25.94 109.052 26.504 106.82 26.504C104.54 26.504 102.536 25.988 100.808 24.956C99.104 23.924 97.772 22.436 96.812 20.492C95.876 18.548 95.408 16.208 95.408 13.472C95.408 10.784 95.9 8.432 96.884 6.416C97.868 4.4 99.212 2.828 100.916 1.7C102.644 0.571998 104.624 0.00799775 106.856 0.00799775ZM106.712 0.655998C105.152 0.655998 103.796 1.196 102.644 2.276C101.492 3.356 100.592 4.844 99.944 6.74C99.32 8.636 99.008 10.832 99.008 13.328C99.008 15.872 99.356 18.092 100.052 19.988C100.772 21.86 101.732 23.312 102.932 24.344C104.156 25.352 105.5 25.856 106.964 25.856C108.524 25.856 109.88 25.316 111.032 24.236C112.184 23.156 113.072 21.668 113.696 19.772C114.344 17.852 114.668 15.656 114.668 13.184C114.668 10.616 114.308 8.396 113.588 6.524C112.892 4.652 111.944 3.212 110.744 2.204C109.544 1.172 108.2 0.655998 106.712 0.655998ZM121.414 0.512C121.918 0.536 122.578 0.559999 123.394 0.583999C124.21 0.607999 125.014 0.619998 125.806 0.619998C126.934 0.619998 128.014 0.607999 129.046 0.583999C130.078 0.559999 130.81 0.547999 131.242 0.547999C133.186 0.547999 134.794 0.823999 136.066 1.376C137.362 1.928 138.322 2.684 138.946 3.644C139.594 4.58 139.918 5.636 139.918 6.812C139.918 7.532 139.774 8.3 139.486 9.116C139.198 9.932 138.694 10.7 137.974 11.42C137.278 12.14 136.318 12.74 135.094 13.22C133.87 13.676 132.322 13.904 130.45 13.904H126.994V13.184H130.09C131.794 13.184 133.09 12.92 133.978 12.392C134.89 11.84 135.502 11.12 135.814 10.232C136.15 9.32 136.318 8.312 136.318 7.208C136.318 5.312 135.862 3.848 134.95 2.816C134.062 1.76 132.526 1.232 130.342 1.232C129.238 1.232 128.518 1.436 128.182 1.844C127.846 2.252 127.678 3.08 127.678 4.328V22.184C127.678 23.048 127.75 23.696 127.894 24.128C128.038 24.56 128.314 24.848 128.722 24.992C129.154 25.136 129.778 25.232 130.594 25.28V26C130.042 25.952 129.346 25.928 128.506 25.928C127.69 25.904 126.862 25.892 126.022 25.892C125.086 25.892 124.21 25.904 123.394 25.928C122.578 25.928 121.918 25.952 121.414 26V25.28C122.23 25.232 122.842 25.136 123.25 24.992C123.682 24.848 123.97 24.56 124.114 24.128C124.258 23.696 124.33 23.048 124.33 22.184V4.328C124.33 3.44 124.258 2.792 124.114 2.384C123.97 1.952 123.682 1.664 123.25 1.52C122.842 1.352 122.23 1.256 121.414 1.232V0.512ZM127.138 13.292C128.434 13.34 129.454 13.4 130.198 13.472C130.942 13.52 131.542 13.568 131.998 13.616C132.478 13.664 132.934 13.724 133.366 13.796C134.974 14.06 136.126 14.552 136.822 15.272C137.542 15.968 138.07 17.06 138.406 18.548L139.306 22.22C139.546 23.276 139.786 24.044 140.026 24.524C140.29 24.98 140.686 25.196 141.214 25.172C141.622 25.148 141.958 25.016 142.222 24.776C142.51 24.536 142.81 24.212 143.122 23.804L143.662 24.2C143.158 24.944 142.63 25.52 142.078 25.928C141.55 26.312 140.794 26.504 139.81 26.504C138.922 26.504 138.142 26.24 137.47 25.712C136.798 25.184 136.294 24.152 135.958 22.616L135.166 19.016C134.95 17.984 134.698 17.096 134.41 16.352C134.146 15.584 133.762 14.984 133.258 14.552C132.778 14.12 132.058 13.904 131.098 13.904H127.21L127.138 13.292ZM153.938 0.512V1.232C153.122 1.256 152.498 1.352 152.066 1.52C151.658 1.664 151.382 1.952 151.238 2.384C151.094 2.792 151.022 3.44 151.022 4.328V22.184C151.022 23.048 151.094 23.696 151.238 24.128C151.382 24.56 151.658 24.848 152.066 24.992C152.498 25.136 153.122 25.232 153.938 25.28V26C153.386 25.952 152.69 25.928 151.85 25.928C151.034 25.904 150.206 25.892 149.366 25.892C148.43 25.892 147.554 25.904 146.738 25.928C145.922 25.928 145.262 25.952 144.758 26V25.28C145.574 25.232 146.186 25.136 146.594 24.992C147.026 24.848 147.314 24.56 147.458 24.128C147.602 23.696 147.674 23.048 147.674 22.184V4.328C147.674 3.44 147.602 2.792 147.458 2.384C147.314 1.952 147.026 1.664 146.594 1.52C146.186 1.352 145.574 1.256 144.758 1.232V0.512C145.262 0.536 145.922 0.559999 146.738 0.583999C147.554 0.607999 148.43 0.619998 149.366 0.619998C150.206 0.619998 151.034 0.607999 151.85 0.583999C152.69 0.559999 153.386 0.536 153.938 0.512ZM167.073 0.331998L175.857 22.976C176.217 23.888 176.625 24.5 177.081 24.812C177.537 25.1 177.957 25.256 178.341 25.28V26C177.861 25.952 177.273 25.928 176.577 25.928C175.881 25.904 175.185 25.892 174.489 25.892C173.553 25.892 172.677 25.904 171.861 25.928C171.045 25.928 170.385 25.952 169.881 26V25.28C171.105 25.232 171.885 25.028 172.221 24.668C172.557 24.284 172.485 23.48 172.005 22.256L165.309 4.364L165.885 3.896L159.621 20.168C159.237 21.128 159.009 21.944 158.937 22.616C158.865 23.264 158.925 23.78 159.117 24.164C159.333 24.548 159.681 24.824 160.161 24.992C160.665 25.16 161.289 25.256 162.033 25.28V26C161.361 25.952 160.653 25.928 159.909 25.928C159.189 25.904 158.517 25.892 157.893 25.892C157.293 25.892 156.777 25.904 156.345 25.928C155.937 25.928 155.553 25.952 155.193 26V25.28C155.673 25.16 156.165 24.884 156.669 24.452C157.173 23.996 157.629 23.228 158.037 22.148L166.497 0.331998C166.593 0.331998 166.689 0.331998 166.785 0.331998C166.881 0.331998 166.977 0.331998 167.073 0.331998ZM171.465 15.632V16.352H160.737L161.097 15.632H171.465Z" fill="#E6E6E6"/>
</svg>
