<svg width="40" height="40" viewBox="0 0 40 40" fill="none" xmlns="http://www.w3.org/2000/svg">
<rect width="40" height="40" rx="9" fill="#070707"/>
<path d="M17.1936 34.9488L16.5909 34.1239C14.2354 31.0148 12.3117 28.3623 10.8197 26.1666C9.32768 23.9708 8.17061 22.0722 7.34846 20.4707C6.52632 18.8692 6.00433 17.4684 5.78248 16.2683C5.56064 15.0682 5.54213 13.9094 5.72696 12.7917C6.06744 10.7327 7.0233 9.11553 8.59453 7.94002C10.1658 6.76452 11.9389 6.34007 13.9139 6.66668C15.4375 6.91863 16.7823 7.59429 17.9484 8.69364C19.1144 9.793 20.0643 11.2796 20.7979 13.1536C22.157 11.5955 23.5502 10.4888 24.9774 9.83336C26.4047 9.17797 27.8801 8.97625 29.4037 9.2282C31.3787 9.55481 32.9208 10.5275 34.03 12.1462C35.1391 13.765 35.5234 15.6038 35.183 17.6628C34.9981 18.7805 34.6075 19.8717 34.0111 20.9364C33.4148 22.0012 32.4696 23.1594 31.1757 24.4109C29.8817 25.6625 28.175 27.0876 26.0555 28.6861C23.9361 30.2846 21.2608 32.1766 18.0298 34.3618L17.1936 34.9488Z" fill="#E6E6E6"/>
</svg>
