<svg width="151" height="150" viewBox="0 0 151 150" fill="none" xmlns="http://www.w3.org/2000/svg">
<path d="M23.4524 65.5692C23.3821 66.1843 23.3294 66.7817 23.2943 67.3616C23.2767 67.9415 23.2679 68.3808 23.2679 68.6795C23.2679 68.9958 23.2767 69.3034 23.2943 69.6021C23.3118 69.8833 23.3294 70.1205 23.347 70.3138H22.7407C22.6353 69.277 22.4859 68.4599 22.2927 67.8624C22.0994 67.2474 21.7655 66.8169 21.2911 66.5708C20.8342 66.3073 20.1401 66.1755 19.2088 66.1755H17.0211C16.4236 66.1755 15.9668 66.2282 15.6505 66.3336C15.3517 66.4215 15.1497 66.6236 15.0442 66.9399C14.9388 67.2386 14.8861 67.7131 14.8861 68.3632V81.4372C14.8861 82.0698 14.9388 82.5442 15.0442 82.8605C15.1497 83.1768 15.3517 83.3877 15.6505 83.4931C15.9668 83.581 16.4236 83.6249 17.0211 83.6249H18.9452C20.0522 83.6249 20.8869 83.4756 21.4492 83.1768C22.0291 82.8781 22.442 82.3949 22.688 81.7271C22.9516 81.0418 23.1449 80.1192 23.2679 78.9594H23.8741C23.8214 79.4339 23.7951 80.0665 23.7951 80.8573C23.7951 81.1911 23.8038 81.6744 23.8214 82.307C23.8566 82.922 23.9093 83.5634 23.9796 84.2312C23.0834 84.196 22.073 84.1785 20.9484 84.1785C19.8238 84.1609 18.8222 84.1521 17.9436 84.1521C17.557 84.1521 17.0562 84.1521 16.4412 84.1521C15.8437 84.1521 15.1936 84.1609 14.4907 84.1785C13.7878 84.1785 13.0762 84.1872 12.3557 84.2048C11.6353 84.2048 10.95 84.2136 10.2998 84.2312V83.704C10.8973 83.6689 11.3453 83.5986 11.6441 83.4931C11.9604 83.3877 12.1712 83.1768 12.2766 82.8605C12.3821 82.5442 12.4348 82.0698 12.4348 81.4372V68.3632C12.4348 67.7131 12.3821 67.2386 12.2766 66.9399C12.1712 66.6236 11.9604 66.4127 11.6441 66.3073C11.3453 66.1843 10.8973 66.114 10.2998 66.0964V65.5692C10.95 65.5868 11.6353 65.6044 12.3557 65.6219C13.0762 65.6219 13.7878 65.6307 14.4907 65.6483C15.1936 65.6483 15.8437 65.6483 16.4412 65.6483C17.0562 65.6483 17.557 65.6483 17.9436 65.6483C18.7519 65.6483 19.6656 65.6483 20.6848 65.6483C21.7216 65.6307 22.6441 65.6044 23.4524 65.5692ZM18.9188 74.5839C18.9188 74.5839 18.9188 74.6718 18.9188 74.8475C18.9188 75.0232 18.9188 75.1111 18.9188 75.1111H14.0953C14.0953 75.1111 14.0953 75.0232 14.0953 74.8475C14.0953 74.6718 14.0953 74.5839 14.0953 74.5839H18.9188ZM19.6832 71.1045C19.6129 72.1062 19.5778 72.8706 19.5778 73.3978C19.5954 73.9249 19.6041 74.4082 19.6041 74.8475C19.6041 75.2868 19.6129 75.77 19.6305 76.2972C19.6481 76.8244 19.692 77.5888 19.7623 78.5904H19.1561C19.0858 78.0281 18.9979 77.4833 18.8925 76.9562C18.8046 76.4114 18.5938 75.9721 18.2599 75.6382C17.9436 75.2868 17.3989 75.1111 16.6257 75.1111V74.5839C17.2056 74.5839 17.6449 74.4697 17.9436 74.2412C18.2599 73.9952 18.4883 73.6877 18.6289 73.3187C18.7695 72.9497 18.8661 72.5718 18.9188 72.1853C18.9716 71.7811 19.0243 71.4208 19.077 71.1045H19.6832ZM42.519 65.5692V66.0964C41.9216 66.114 41.4647 66.2018 41.1484 66.36C40.8497 66.5181 40.6476 66.7729 40.5422 67.1244C40.4368 67.4758 40.3841 67.9766 40.3841 68.6268V76.5608C40.3841 77.7909 40.305 78.8628 40.1468 79.7766C39.9887 80.6903 39.7075 81.4811 39.3034 82.1488C38.8641 82.8869 38.2227 83.4843 37.3793 83.9412C36.5358 84.3805 35.5693 84.6002 34.4799 84.6002C33.6364 84.6002 32.8281 84.4948 32.055 84.2839C31.2994 84.0906 30.6316 83.7216 30.0518 83.1768C29.5422 82.6848 29.138 82.1664 28.8393 81.6217C28.5581 81.0769 28.3649 80.4092 28.2594 79.6184C28.154 78.8276 28.1013 77.8348 28.1013 76.6399V68.3632C28.1013 67.7131 28.0486 67.2386 27.9431 66.9399C27.8377 66.6236 27.6268 66.4127 27.3105 66.3073C27.0118 66.1843 26.5637 66.114 25.9663 66.0964V65.5692C26.3353 65.5868 26.8185 65.6044 27.416 65.6219C28.0134 65.6395 28.6548 65.6483 29.3401 65.6483C29.9551 65.6483 30.5613 65.6395 31.1588 65.6219C31.7738 65.6044 32.2834 65.5868 32.6875 65.5692V66.0964C32.0901 66.114 31.6332 66.1843 31.3169 66.3073C31.0182 66.4127 30.8161 66.6236 30.7107 66.9399C30.6053 67.2386 30.5526 67.7131 30.5526 68.3632V77.088C30.5526 77.9842 30.5965 78.8364 30.6843 79.6448C30.7722 80.4355 30.9479 81.1384 31.2115 81.7535C31.4927 82.3509 31.9144 82.8254 32.4767 83.1768C33.039 83.5107 33.7858 83.6776 34.7171 83.6776C36.0526 83.6776 37.0805 83.3877 37.801 82.8078C38.539 82.2103 39.0486 81.3932 39.3297 80.3564C39.6285 79.3197 39.7778 78.1511 39.7778 76.8507V68.6268C39.7778 67.9766 39.6987 67.4758 39.5406 67.1244C39.4 66.7729 39.154 66.5181 38.8026 66.36C38.4511 66.2018 37.9767 66.114 37.3793 66.0964V65.5692C37.6956 65.5868 38.1085 65.6044 38.6181 65.6219C39.1452 65.6395 39.6285 65.6483 40.0678 65.6483C40.5246 65.6483 40.9727 65.6395 41.412 65.6219C41.8689 65.6044 42.2379 65.5868 42.519 65.5692ZM44.3283 65.5692C44.6973 65.5868 45.1805 65.6044 45.778 65.6219C46.3754 65.6395 46.9641 65.6483 47.544 65.6483C48.3698 65.6483 49.1606 65.6395 49.9162 65.6219C50.6718 65.6044 51.2077 65.5956 51.524 65.5956C53.6502 65.5956 55.2405 66.0788 56.2948 67.0453C57.3491 68.0118 57.8763 69.2594 57.8763 70.7882C57.8763 71.4208 57.7708 72.0886 57.56 72.7915C57.3491 73.4768 56.9801 74.1182 56.4529 74.7157C55.9433 75.2956 55.2405 75.77 54.3443 76.1391C53.4481 76.5081 52.3147 76.6926 50.9441 76.6926H48.4138V76.1654H50.6805C51.9282 76.1654 52.877 75.9282 53.5272 75.4537C54.1949 74.9793 54.643 74.3555 54.8715 73.5823C55.1175 72.8091 55.2405 71.9744 55.2405 71.0782C55.2405 69.4088 54.9066 68.1612 54.2389 67.3353C53.5887 66.5093 52.4641 66.0964 50.8651 66.0964C50.0567 66.0964 49.5296 66.2458 49.2836 66.5445C49.0376 66.8432 48.9146 67.4495 48.9146 68.3632V81.4372C48.9146 82.0698 48.9761 82.5442 49.0991 82.8605C49.2397 83.1768 49.5032 83.3877 49.8898 83.4931C50.2764 83.5986 50.8387 83.6689 51.5767 83.704V84.2312C51.1198 84.196 50.54 84.1785 49.8371 84.1785C49.1342 84.1609 48.4226 84.1521 47.7021 84.1521C47.0168 84.1521 46.3754 84.1609 45.778 84.1785C45.1805 84.1785 44.6973 84.196 44.3283 84.2312V83.704C44.9257 83.6689 45.3738 83.5986 45.6725 83.4931C45.9888 83.3877 46.1997 83.1768 46.3051 82.8605C46.4106 82.5442 46.4633 82.0698 46.4633 81.4372V68.3632C46.4633 67.7131 46.4106 67.2386 46.3051 66.9399C46.1997 66.6236 45.9888 66.4127 45.6725 66.3073C45.3738 66.1843 44.9257 66.114 44.3283 66.0964V65.5692ZM70.7642 84.2312V83.704C71.3617 83.6689 71.8098 83.5986 72.1085 83.4931C72.4248 83.3877 72.6357 83.1768 72.7411 82.8605C72.8465 82.5442 72.8992 82.0698 72.8992 81.4372V68.3632C72.8992 67.7131 72.8465 67.2386 72.7411 66.9399C72.6357 66.6236 72.4248 66.4127 72.1085 66.3073C71.8098 66.1843 71.3617 66.114 70.7642 66.0964V65.5692C71.1684 65.5868 71.678 65.6044 72.293 65.6219C72.908 65.6395 73.5143 65.6483 74.1117 65.6483C74.797 65.6483 75.4384 65.6395 76.0358 65.6219C76.6333 65.6044 77.1165 65.5868 77.4855 65.5692V66.0964C76.8881 66.114 76.4312 66.1843 76.1149 66.3073C75.8162 66.4127 75.6141 66.6236 75.5087 66.9399C75.4032 67.2386 75.3505 67.7131 75.3505 68.3632V81.4372C75.3505 82.0698 75.4032 82.5442 75.5087 82.8605C75.6141 83.1768 75.8162 83.3877 76.1149 83.4931C76.4312 83.5986 76.8881 83.6689 77.4855 83.704V84.2312C77.1165 84.196 76.6333 84.1785 76.0358 84.1785C75.4384 84.1609 74.797 84.1521 74.1117 84.1521C73.5143 84.1521 72.908 84.1609 72.293 84.1785C71.678 84.1785 71.1684 84.196 70.7642 84.2312ZM59.7466 84.2312V83.704C60.3441 83.6689 60.7922 83.5986 61.0909 83.4931C61.4072 83.3877 61.6181 83.1768 61.7235 82.8605C61.8289 82.5442 61.8816 82.0698 61.8816 81.4372V68.3632C61.8816 67.7131 61.8289 67.2386 61.7235 66.9399C61.6181 66.6236 61.4072 66.4127 61.0909 66.3073C60.7922 66.1843 60.3441 66.114 59.7466 66.0964V65.5692C60.1157 65.5868 60.5989 65.6044 61.1963 65.6219C61.7938 65.6395 62.4351 65.6483 63.1204 65.6483C63.7355 65.6483 64.3417 65.6395 64.9392 65.6219C65.5542 65.6044 66.0638 65.5868 66.4679 65.5692V66.0964C65.8705 66.114 65.4136 66.1843 65.0973 66.3073C64.7986 66.4127 64.5965 66.6236 64.4911 66.9399C64.3856 67.2386 64.3329 67.7131 64.3329 68.3632V81.4372C64.3329 82.0698 64.3856 82.5442 64.4911 82.8605C64.5965 83.1768 64.7986 83.3877 65.0973 83.4931C65.4136 83.5986 65.8705 83.6689 66.4679 83.704V84.2312C66.0638 84.196 65.5542 84.1785 64.9392 84.1785C64.3417 84.1609 63.7355 84.1521 63.1204 84.1521C62.4351 84.1521 61.7938 84.1609 61.1963 84.1785C60.5989 84.1785 60.1157 84.196 59.7466 84.2312ZM63.4104 75.1111V74.5839H73.8218V75.1111H63.4104ZM88.161 65.2002C89.8304 65.2002 91.2889 65.578 92.5365 66.3336C93.8016 67.0892 94.7769 68.1787 95.4622 69.6021C96.1651 71.0079 96.5165 72.7212 96.5165 74.742C96.5165 76.7102 96.1563 78.4323 95.4358 79.9083C94.733 81.3844 93.7489 82.5354 92.4837 83.3613C91.2186 84.1872 89.7689 84.6002 88.1347 84.6002C86.4654 84.6002 84.9981 84.2224 83.7329 83.4668C82.4853 82.7112 81.5101 81.6217 80.8072 80.1983C80.1219 78.7749 79.7792 77.0616 79.7792 75.0583C79.7792 73.0902 80.1395 71.3681 80.8599 69.892C81.5804 68.416 82.5644 67.265 83.812 66.4391C85.0772 65.6131 86.5269 65.2002 88.161 65.2002ZM88.0556 65.6747C86.9134 65.6747 85.9206 66.07 85.0772 66.8608C84.2337 67.6516 83.5748 68.741 83.1003 70.1293C82.6435 71.5175 82.415 73.1254 82.415 74.9529C82.415 76.8156 82.6698 78.441 83.1794 79.8293C83.7066 81.1999 84.4094 82.2631 85.288 83.0187C86.1842 83.7567 87.1682 84.1257 88.2401 84.1257C89.3823 84.1257 90.3751 83.7304 91.2186 82.9396C92.062 82.1488 92.7122 81.0593 93.1691 79.6711C93.6435 78.2653 93.8807 76.6574 93.8807 74.8475C93.8807 72.9672 93.6171 71.3418 93.09 69.9711C92.5804 68.6005 91.8863 67.5461 91.0077 66.8081C90.1291 66.0525 89.1451 65.6747 88.0556 65.6747ZM98.8199 65.5692C99.1889 65.5868 99.6721 65.6044 100.27 65.6219C100.867 65.6395 101.456 65.6483 102.036 65.6483C102.861 65.6483 103.652 65.6395 104.408 65.6219C105.163 65.6044 105.699 65.5956 106.016 65.5956C107.439 65.5956 108.616 65.7977 109.548 66.2018C110.496 66.606 111.199 67.1595 111.656 67.8624C112.131 68.5478 112.368 69.3209 112.368 70.182C112.368 70.7092 112.262 71.2715 112.052 71.8689C111.841 72.4664 111.472 73.0287 110.945 73.5559C110.435 74.0831 109.732 74.5224 108.836 74.8738C107.94 75.2077 106.806 75.3747 105.436 75.3747H102.905V74.8475H105.172C106.42 74.8475 107.369 74.6542 108.019 74.2676C108.687 73.8634 109.135 73.3362 109.363 72.6861C109.609 72.0183 109.732 71.2803 109.732 70.4719C109.732 69.0837 109.398 68.0118 108.73 67.2562C108.08 66.483 106.956 66.0964 105.357 66.0964C104.548 66.0964 104.021 66.2458 103.775 66.5445C103.529 66.8432 103.406 67.4495 103.406 68.3632V81.4372C103.406 82.0698 103.459 82.5442 103.564 82.8605C103.67 83.1768 103.872 83.3877 104.171 83.4931C104.487 83.5986 104.944 83.6689 105.541 83.704V84.2312C105.137 84.196 104.627 84.1785 104.012 84.1785C103.415 84.1609 102.809 84.1521 102.194 84.1521C101.508 84.1521 100.867 84.1609 100.27 84.1785C99.6721 84.1785 99.1889 84.196 98.8199 84.2312V83.704C99.4173 83.6689 99.8654 83.5986 100.164 83.4931C100.48 83.3877 100.691 83.1768 100.797 82.8605C100.902 82.5442 100.955 82.0698 100.955 81.4372V68.3632C100.955 67.7131 100.902 67.2386 100.797 66.9399C100.691 66.6236 100.48 66.4127 100.164 66.3073C99.8654 66.1843 99.4173 66.114 98.8199 66.0964V65.5692ZM103.011 74.9266C103.96 74.9617 104.706 75.0056 105.251 75.0583C105.796 75.0935 106.235 75.1286 106.569 75.1638C106.921 75.1989 107.254 75.2429 107.571 75.2956C108.748 75.4889 109.591 75.8491 110.101 76.3763C110.628 76.8859 111.015 77.6854 111.261 78.7749L111.92 81.4635C112.095 82.2367 112.271 82.799 112.447 83.1505C112.64 83.4843 112.93 83.6425 113.317 83.6249C113.615 83.6074 113.861 83.5107 114.055 83.335C114.266 83.1593 114.485 82.922 114.714 82.6233L115.109 82.9132C114.74 83.458 114.353 83.8797 113.949 84.1785C113.563 84.4596 113.009 84.6002 112.289 84.6002C111.639 84.6002 111.068 84.4069 110.576 84.0203C110.084 83.6337 109.714 82.8781 109.468 81.7535L108.889 79.1176C108.73 78.362 108.546 77.7118 108.335 77.167C108.142 76.6047 107.861 76.1654 107.492 75.8491C107.14 75.5328 106.613 75.3747 105.91 75.3747H103.064L103.011 74.9266ZM122.633 65.5692V66.0964C122.035 66.114 121.578 66.1843 121.262 66.3073C120.963 66.4127 120.761 66.6236 120.656 66.9399C120.551 67.2386 120.498 67.7131 120.498 68.3632V81.4372C120.498 82.0698 120.551 82.5442 120.656 82.8605C120.761 83.1768 120.963 83.3877 121.262 83.4931C121.578 83.5986 122.035 83.6689 122.633 83.704V84.2312C122.229 84.196 121.719 84.1785 121.104 84.1785C120.507 84.1609 119.9 84.1521 119.285 84.1521C118.6 84.1521 117.959 84.1609 117.361 84.1785C116.764 84.1785 116.281 84.196 115.912 84.2312V83.704C116.509 83.6689 116.957 83.5986 117.256 83.4931C117.572 83.3877 117.783 83.1768 117.888 82.8605C117.994 82.5442 118.047 82.0698 118.047 81.4372V68.3632C118.047 67.7131 117.994 67.2386 117.888 66.9399C117.783 66.6236 117.572 66.4127 117.256 66.3073C116.957 66.1843 116.509 66.114 115.912 66.0964V65.5692C116.281 65.5868 116.764 65.6044 117.361 65.6219C117.959 65.6395 118.6 65.6483 119.285 65.6483C119.9 65.6483 120.507 65.6395 121.104 65.6219C121.719 65.6044 122.229 65.5868 122.633 65.5692ZM132.25 65.4374L138.681 82.017C138.945 82.6848 139.243 83.1329 139.577 83.3613C139.911 83.5722 140.219 83.6864 140.5 83.704V84.2312C140.148 84.196 139.718 84.1785 139.208 84.1785C138.699 84.1609 138.189 84.1521 137.679 84.1521C136.994 84.1521 136.353 84.1609 135.755 84.1785C135.158 84.1785 134.675 84.196 134.306 84.2312V83.704C135.202 83.6689 135.773 83.5195 136.019 83.2559C136.265 82.9747 136.212 82.3861 135.861 81.4899L130.958 68.3896L131.38 68.0469L126.794 79.9611C126.513 80.664 126.346 81.2614 126.293 81.7535C126.24 82.2279 126.284 82.6057 126.425 82.8869C126.583 83.168 126.838 83.3701 127.189 83.4931C127.558 83.6161 128.015 83.6864 128.56 83.704V84.2312C128.068 84.196 127.549 84.1785 127.005 84.1785C126.477 84.1609 125.985 84.1521 125.529 84.1521C125.089 84.1521 124.711 84.1609 124.395 84.1785C124.096 84.1785 123.815 84.196 123.552 84.2312V83.704C123.903 83.6161 124.263 83.4141 124.632 83.0977C125.001 82.7639 125.335 82.2016 125.634 81.4108L131.828 65.4374C131.898 65.4374 131.969 65.4374 132.039 65.4374C132.109 65.4374 132.179 65.4374 132.25 65.4374ZM135.465 76.6399V77.167H127.611L127.874 76.6399H135.465Z" fill="#070707"/>
</svg>
