<svg width="24" height="24" viewBox="0 0 24 24" fill="none" xmlns="http://www.w3.org/2000/svg">
<path d="M12 19.6504L11.25 18.9754C9.61667 17.4754 8.26667 16.1961 7.2 15.1374C6.13333 14.0794 5.28767 13.1461 4.663 12.3374C4.03767 11.5294 3.604 10.7961 3.362 10.1374C3.12067 9.47939 3 8.81706 3 8.15039C3 6.88372 3.43333 5.81706 4.3 4.95039C5.16667 4.08372 6.23333 3.65039 7.5 3.65039C8.38333 3.65039 9.20833 3.87539 9.975 4.32539C10.7417 4.77539 11.4167 5.43372 12 6.30039C12.5833 5.43372 13.2583 4.77539 14.025 4.32539C14.7917 3.87539 15.6167 3.65039 16.5 3.65039C17.7667 3.65039 18.8333 4.08372 19.7 4.95039C20.5667 5.81706 21 6.88372 21 8.15039C21 8.81706 20.8793 9.47939 20.638 10.1374C20.396 10.7961 19.9627 11.5294 19.338 12.3374C18.7127 13.1461 17.8707 14.0794 16.812 15.1374C15.754 16.1961 14.4 17.4754 12.75 18.9754L12 19.6504ZM12 18.3004C13.6 16.8504 14.9167 15.6087 15.95 14.5754C16.9833 13.5421 17.8 12.6461 18.4 11.8874C19 11.1294 19.4167 10.4587 19.65 9.87539C19.8833 9.29206 20 8.71706 20 8.15039C20 7.15039 19.6667 6.31706 19 5.65039C18.3333 4.98372 17.5 4.65039 16.5 4.65039C15.7 4.65039 14.9627 4.87939 14.288 5.33739C13.6127 5.79606 13.0167 6.47539 12.5 7.37539H11.5C10.9667 6.45872 10.3667 5.77539 9.7 5.32539C9.03333 4.87539 8.3 4.65039 7.5 4.65039C6.51667 4.65039 5.68767 4.98372 5.013 5.65039C4.33767 6.31706 4 7.15039 4 8.15039C4 8.71706 4.11667 9.29206 4.35 9.87539C4.58333 10.4587 5 11.1294 5.6 11.8874C6.2 12.6461 7.01667 13.5377 8.05 14.5624C9.08333 15.5877 10.4 16.8337 12 18.3004V18.3004Z" fill="black"/>
</svg>
