<svg width="24" height="24" viewBox="0 0 24 24" fill="none" xmlns="http://www.w3.org/2000/svg">
<path d="M11 19.6496L9.85 18.5996C8.33333 17.2163 7.06667 16.0246 6.05 15.0246C5.03333 14.0246 4.225 13.1329 3.625 12.3496C3.025 11.5663 2.604 10.8496 2.362 10.1996C2.12067 9.54961 2 8.89128 2 8.22461C2 6.95794 2.43333 5.89128 3.3 5.02461C4.16667 4.15794 5.23333 3.72461 6.5 3.72461C7.38333 3.72461 8.20833 3.94961 8.975 4.39961C9.74167 4.84961 10.4167 5.50794 11 6.37461C11.5833 5.50794 12.2583 4.84961 13.025 4.39961C13.7917 3.94961 14.6167 3.72461 15.5 3.72461C16.65 3.72461 17.6293 4.08694 18.438 4.81161C19.246 5.53694 19.7417 6.43294 19.925 7.49961H18.9C18.7333 6.68294 18.3333 6.01628 17.7 5.49961C17.0667 4.98294 16.3333 4.72461 15.5 4.72461C14.6833 4.72461 13.946 4.95361 13.288 5.41161C12.6293 5.87028 12 6.56628 11.4 7.49961H10.6C10 6.54961 9.36667 5.84961 8.7 5.39961C8.03333 4.94961 7.3 4.72461 6.5 4.72461C5.51667 4.72461 4.68767 5.05794 4.013 5.72461C3.33767 6.39128 3 7.22461 3 8.22461C3 8.79128 3.11667 9.36228 3.35 9.93761C3.58333 10.5123 4 11.1789 4.6 11.9376C5.2 12.6956 6.01667 13.5829 7.05 14.5996C8.08333 15.6163 9.4 16.8496 11 18.2996C11.5167 17.8329 12.0207 17.3789 12.512 16.9376C13.004 16.4956 13.4417 16.0829 13.825 15.6996L13.938 15.8116L14.188 16.0616L14.438 16.3116L14.55 16.4246C14.15 16.7913 13.7083 17.1913 13.225 17.6246C12.7417 18.0579 12.25 18.5079 11.75 18.9746L11 19.6496ZM17.725 16.4996V13.4996H14.725V12.4996H17.725V9.49961H18.725V12.4996H21.725V13.4996H18.725V16.4996H17.725Z" fill="black"/>
</svg>
