<svg width="24" height="24" viewBox="0 0 24 24" fill="none" xmlns="http://www.w3.org/2000/svg">
<path d="M5.7502 21.3008C5.2502 21.3008 4.8252 21.1258 4.4752 20.7758C4.1252 20.4258 3.9502 20.0008 3.9502 19.5008V6.80078H5.4502V19.5008C5.4502 19.5841 5.4792 19.6548 5.5372 19.7128C5.59586 19.7714 5.66686 19.8008 5.7502 19.8008H15.4502V21.3008H5.7502ZM9.2502 17.8008C8.7502 17.8008 8.32519 17.6258 7.97519 17.2758C7.62519 16.9258 7.4502 16.5008 7.4502 16.0008V4.62578C7.4502 4.10911 7.62519 3.67578 7.97519 3.32578C8.32519 2.97578 8.7502 2.80078 9.2502 2.80078H17.6252C18.1419 2.80078 18.5752 2.97578 18.9252 3.32578C19.2752 3.67578 19.4502 4.10911 19.4502 4.62578V16.0008C19.4502 16.5008 19.2752 16.9258 18.9252 17.2758C18.5752 17.6258 18.1419 17.8008 17.6252 17.8008H9.2502ZM9.2502 16.3008H17.6252C17.7085 16.3008 17.7835 16.2714 17.8502 16.2128C17.9169 16.1548 17.9502 16.0841 17.9502 16.0008V4.62578C17.9502 4.54245 17.9169 4.46745 17.8502 4.40078C17.7835 4.33411 17.7085 4.30078 17.6252 4.30078H9.2502C9.16686 4.30078 9.0962 4.33411 9.0382 4.40078C8.97953 4.46745 8.9502 4.54245 8.9502 4.62578V16.0008C8.9502 16.0841 8.97953 16.1548 9.0382 16.2128C9.0962 16.2714 9.16686 16.3008 9.2502 16.3008ZM8.9502 16.3008V4.30078V16.3008Z" fill="black"/>
</svg>
