<svg width="24" height="24" viewBox="0 0 24 24" fill="none" xmlns="http://www.w3.org/2000/svg">
<path d="M11 19.6496L9.85 18.5996C8.33333 17.2163 7.06667 16.0246 6.05 15.0246C5.03333 14.0246 4.225 13.1329 3.625 12.3496C3.025 11.5663 2.604 10.8496 2.362 10.1996C2.12067 9.54961 2 8.89128 2 8.22461C2 6.95794 2.43333 5.89128 3.3 5.02461C4.16667 4.15794 5.23333 3.72461 6.5 3.72461C7.38333 3.72461 8.20833 3.94961 8.975 4.39961C9.74167 4.84961 10.4167 5.50794 11 6.37461C11.5833 5.50794 12.2583 4.84961 13.025 4.39961C13.7917 3.94961 14.6167 3.72461 15.5 3.72461C16.6833 3.72461 17.7333 4.14128 18.65 4.97461C19.5667 5.80794 20.025 6.88294 20.025 8.19961C20.025 8.49961 19.9917 8.81194 19.925 9.13661C19.8583 9.46194 19.7667 9.79128 19.65 10.1246H18.55C18.7 9.75794 18.8083 9.41194 18.875 9.08661C18.9417 8.76194 18.975 8.45794 18.975 8.17461C18.975 6.99128 18.5793 6.12028 17.788 5.56161C16.996 5.00361 16.2333 4.72461 15.5 4.72461C14.6833 4.72461 13.946 4.95361 13.288 5.41161C12.6293 5.87028 12 6.56628 11.4 7.49961H10.6C10 6.54961 9.36667 5.84961 8.7 5.39961C8.03333 4.94961 7.3 4.72461 6.5 4.72461C5.51667 4.72461 4.68767 5.05794 4.013 5.72461C3.33767 6.39128 3 7.22461 3 8.22461C3 8.79128 3.11667 9.36228 3.35 9.93761C3.58333 10.5123 4 11.1789 4.6 11.9376C5.2 12.6956 6.01667 13.5829 7.05 14.5996C8.08333 15.6163 9.4 16.8496 11 18.2996C11.5167 17.8329 12.0207 17.3789 12.512 16.9376C13.004 16.4956 13.4417 16.0829 13.825 15.6996L13.938 15.8116L14.188 16.0616L14.438 16.3116L14.55 16.4246C14.15 16.7913 13.7083 17.1913 13.225 17.6246C12.7417 18.0579 12.25 18.5079 11.75 18.9746L11 19.6496ZM14.725 13.4996V12.4996H21.725V13.4996H14.725Z" fill="black"/>
</svg>
