<svg width="635" height="214" viewBox="0 0 635 214" fill="none" xmlns="http://www.w3.org/2000/svg">
<path fill-rule="evenodd" clip-rule="evenodd" d="M132.951 123.34L185.342 123.273L183.432 135.195L139.617 177.021L176.398 176.954L174.254 189.813L120.088 189.847L122.366 176.552L164.372 136.334H130.841L132.951 123.34Z" fill="#D13239"/>
<path fill-rule="evenodd" clip-rule="evenodd" d="M75.638 102.946C74.4991 101.74 72.8577 100.802 71.0488 100.066C69.1394 99.329 67.0291 98.7932 64.9522 98.4248C62.3394 97.956 59.7936 97.755 57.9847 97.6881C56.3098 97.6211 55.2379 97.6211 55.2379 97.6211H32.3254H15.275L0 189.846H14.2701L19.8977 155.689L47.5669 155.823C47.5669 155.823 58.3531 156.258 65.9906 152.206C73.6281 148.154 75.6715 138.945 75.6715 138.945C75.6715 138.945 76.509 135.529 77.2124 131.377C77.9829 126.789 78.7533 121.297 79.1553 118.383C79.3228 117.111 79.4233 116.307 79.4233 116.307C79.4233 116.307 79.6242 115.37 79.6242 113.896C79.6577 111.853 79.3563 108.772 77.7484 105.826C77.1789 104.787 76.509 103.85 75.638 102.946ZM64.6507 119.221C64.6507 119.388 63.3778 126.789 61.7029 135.563C61.0665 138.911 58.4871 140.72 55.5393 141.356C50.6487 142.394 45.3895 142.193 45.3895 142.193L22.276 142.126L27.3677 111.485L48.3038 111.552C48.3038 111.552 49.7107 111.518 51.6871 111.552C53.9314 111.585 56.9127 111.686 59.3581 112.021C61.4684 112.289 63.1433 112.724 63.6793 113.394C64.3828 114.264 64.6507 115.403 64.7512 116.408C64.8852 117.881 64.6507 119.12 64.6507 119.221Z" fill="#D13239"/>
<path fill-rule="evenodd" clip-rule="evenodd" d="M256.393 97.6211H270.127L254.752 189.846L240.984 189.813L256.393 97.6211Z" fill="#D13239"/>
<path fill-rule="evenodd" clip-rule="evenodd" d="M329.686 123.341L342.85 123.307L347.506 170.123L367.773 123.24L384.019 123.274L388.809 170.29L409.042 123.307H422.709L393.7 189.78H377.487L372.797 143.232L352.33 189.78L336.385 189.847L329.686 123.341Z" fill="#D13239"/>
<path d="M231.034 123.871C227.182 122.632 220.516 122.364 214.854 122.431C209.394 122.498 206.882 122.766 204.839 123.202C204.839 123.202 195.124 124.608 189.597 131.44C184.07 138.271 182.429 153.207 182.429 153.207C182.429 153.207 179.146 169.716 180.117 175.241C181.089 180.733 182.797 185.857 189.028 188.235C195.258 190.646 200.551 190.512 200.551 190.512C200.551 190.512 211.672 191.382 220.047 189.407C228.421 187.431 232.843 181.537 232.843 181.537C232.843 181.537 234.819 178.992 236.226 175.978C237.633 172.964 238.068 170.855 238.135 170.587L239.006 167.003L224.77 167.037C224.77 167.037 223.999 176.447 216.295 177.318C208.624 178.188 204.504 177.853 202.996 177.786C201.522 177.72 193.282 178.088 193.952 171.189C193.952 171.089 193.952 170.955 193.985 170.754C194.354 162.918 195.225 160.875 195.225 160.875L239.944 160.741L241.854 149.69C244.065 137.166 242.49 127.622 231.034 123.871ZM228.053 148.116L197.402 148.083L198.608 143.227C198.608 143.227 199.68 139.41 201.79 137.802C203.934 136.195 206.647 135.893 209.193 135.659C211.739 135.425 218.539 134.922 224.066 136.061C225.909 136.429 227.651 137.467 228.12 139.008C229.191 142.624 228.053 148.116 228.053 148.116Z" fill="#D13239"/>
<path d="M194.051 170.89C194.051 170.99 194.017 171.091 194.017 171.191C193.984 171.727 194.051 170.856 194.051 170.89Z" fill="#D13239"/>
<path d="M278.399 170.929C278.399 171.029 278.365 171.13 278.365 171.23C278.365 171.766 278.399 170.895 278.399 170.929Z" fill="#D13239"/>
<path d="M315.415 123.91C311.562 122.671 304.896 122.403 299.235 122.47C293.775 122.537 291.263 122.805 289.219 123.241C289.219 123.241 279.505 124.647 273.978 131.479C268.451 138.31 266.809 153.246 266.809 153.246C266.809 153.246 263.527 169.755 264.498 175.28C265.47 180.772 267.178 185.896 273.409 188.274C279.639 190.685 284.932 190.551 284.932 190.551C284.932 190.551 296.053 191.422 304.427 189.446C312.802 187.47 317.224 181.576 317.224 181.576C317.224 181.576 319.2 179.031 320.607 176.017C322.014 173.003 322.449 170.894 322.516 170.626L323.387 167.043L309.151 167.076C309.151 167.076 308.38 176.486 300.676 177.357C293.005 178.227 288.884 177.893 287.377 177.859C285.903 177.792 277.663 178.127 278.333 171.262C278.333 171.162 278.333 171.028 278.366 170.827C278.735 162.991 279.606 160.948 279.606 160.948L324.325 160.814L326.235 149.763C328.445 137.205 326.871 127.628 315.415 123.91ZM312.299 148.122L281.649 148.088L282.855 143.233C282.855 143.233 283.927 139.415 286.037 137.808C288.148 136.2 290.894 135.899 293.44 135.665C295.986 135.43 302.786 134.928 308.313 136.066C310.156 136.435 311.897 137.473 312.366 139.013C313.438 142.597 312.299 148.122 312.299 148.122Z" fill="#D13239"/>
<path fill-rule="evenodd" clip-rule="evenodd" d="M438.52 123.338L447.33 171.962L472.219 123.305L486.221 123.439L450.345 192.926C450.345 192.926 443.846 205.517 439.826 208.698C435.807 211.88 433.328 213.32 430.045 213.654C426.762 213.989 425.422 214.224 422.274 213.654L418.924 213.052L421.001 200.628C421.001 200.628 426.561 201.666 429.844 200.36C433.16 199.054 435.807 193.428 435.807 193.428L437.482 190.615L424.518 123.305L438.52 123.338Z" fill="#D13239"/>
<path fill-rule="evenodd" clip-rule="evenodd" d="M491.312 129.938L505.75 129.971L506.621 124.379C506.621 124.379 508.162 114.266 511.612 112.323C512.718 111.687 514.493 111.118 516.536 110.749C520.322 110.08 525.112 110.013 529.031 110.147C535.027 110.348 537.305 110.415 543.402 111.118C549.498 111.821 547.957 117.715 547.957 117.715L546.751 126.522C546.751 126.522 546.215 130.474 544.808 132.918C543.569 135.095 540.152 136.568 538.176 137.205C533.419 138.745 517.139 142.898 517.139 142.898L504.343 146.581C504.343 146.581 496.471 148.858 492.083 153.714C487.661 158.603 485.919 164.129 485.316 167.009C484.713 169.889 481.33 189.814 481.33 189.814L550.403 189.847L552.714 176.05L498.079 176.117L499.05 170.491C499.05 170.491 499.687 164.698 502.032 162.789C502.769 162.186 503.137 161.383 507.492 159.842C510.105 158.905 519.015 156.527 519.015 156.527L539.616 150.901C539.616 150.901 550.872 148.021 555.293 141.859C559.715 135.731 561.423 123.977 561.423 123.977C561.423 123.977 562.629 112.558 561.691 108.975C560.787 105.391 557.404 101.105 553.283 99.2631C549.163 97.4213 544.875 96.3497 532.448 96.5171C520.02 96.6846 513.856 97.2539 507.559 99.598C501.261 101.909 497.61 106.128 495.299 112.089C492.786 117.748 491.312 129.938 491.312 129.938Z" fill="#B3B2B1"/>
<path fill-rule="evenodd" clip-rule="evenodd" d="M621.352 155.587L631.032 97.5859H613.882L560.486 154.917L558.074 169.45H604.77L601.353 189.811L615.69 189.844L619.074 169.45L632.305 169.484L634.684 155.587H621.352ZM607.082 155.62L576.9 155.587L613.647 116.439L607.082 155.62Z" fill="#B3B2B1"/>
<path fill-rule="evenodd" clip-rule="evenodd" d="M105.92 105.222H149.903C149.903 105.222 159.751 97.2524 166.752 92.1288C173.753 87.0052 186.482 78.9347 186.482 78.9347L161.627 67.3145C161.627 67.3145 140.624 80.3077 131.713 86.4359C123.071 92.0953 105.92 105.222 105.92 105.222Z" fill="#B3B2B1"/>
<path fill-rule="evenodd" clip-rule="evenodd" d="M200.449 70.7289L180.049 56.9989C180.049 56.9989 198.506 46.5173 223.06 36.7389C247.58 26.9605 260.678 22.875 260.678 22.875L264.832 42.3313C264.832 42.3313 241.216 50.2344 227.683 56.6306C213.681 62.5914 200.449 70.7289 200.449 70.7289Z" fill="#B3B2B1"/>
<path fill-rule="evenodd" clip-rule="evenodd" d="M279.908 38.0801L276.357 18.1549C276.357 18.1549 301.548 11.4574 324.594 7.17097C347.674 2.88454 378.258 0.841797 378.258 0.841797L368.141 31.617C368.141 31.617 341.243 27.9333 315.985 31.3826C296.322 33.7267 279.908 38.0801 279.908 38.0801Z" fill="#B3B2B1"/>
<path fill-rule="evenodd" clip-rule="evenodd" d="M384.15 34.2292L401.167 0.0382912C401.167 0.0382912 438.45 -0.698438 470.608 4.29123C502.766 9.2474 532.177 16.8826 531.541 17.2175L450.007 59.8473C450.007 59.8473 430.947 47.7917 407.297 40.3909C393.898 36.4394 384.15 34.2292 384.15 34.2292Z" fill="#B3B2B1"/>
<path fill-rule="evenodd" clip-rule="evenodd" d="M464.613 69.1217L482.535 82.7177H629.824C629.824 82.7177 629.523 77.9625 625.604 71.198C623.158 66.9785 618.703 62.4912 614.047 57.8364C612.339 56.162 605.572 50.871 600.48 47.5557C587.483 39.1168 580.214 35.8685 566.715 29.7402L464.613 69.1217Z" fill="#B3B2B1"/>
<path d="M115.466 123.273C109.939 123.273 104.714 125.45 100.258 127.895L101.029 123.273H86.3902L74.666 189.479H89.338L95.8366 152.81C97.1765 145.375 102.737 136.166 113.59 136.166L121.161 136.133L123.439 123.273H115.466Z" fill="#D13239"/>
</svg>
