<svg width="24" height="24" viewBox="0 0 24 24" fill="none" xmlns="http://www.w3.org/2000/svg">
<path d="M5.69922 19.125C4.96589 19.125 4.34522 18.871 3.83722 18.363C3.32855 17.8543 3.07422 17.2333 3.07422 16.5H1.69922V6.625C1.69922 6.15833 1.85355 5.771 2.16222 5.463C2.47022 5.15433 2.84922 5 3.29922 5H16.5492V8.625H18.8492L22.2992 13.275V16.5H20.6992C20.6992 17.2333 20.4452 17.8543 19.9372 18.363C19.4286 18.871 18.8076 19.125 18.0742 19.125C17.3409 19.125 16.7202 18.871 16.2122 18.363C15.7036 17.8543 15.4492 17.2333 15.4492 16.5H8.29922C8.29922 17.2333 8.04522 17.8543 7.53722 18.363C7.02855 18.871 6.41589 19.125 5.69922 19.125ZM5.69922 18.125C6.14922 18.125 6.52855 17.9667 6.83722 17.65C7.14522 17.3333 7.29922 16.95 7.29922 16.5C7.29922 16.05 7.14522 15.6667 6.83722 15.35C6.52855 15.0333 6.14922 14.875 5.69922 14.875C5.24922 14.875 4.86589 15.0333 4.54922 15.35C4.23255 15.6667 4.07422 16.05 4.07422 16.5C4.07422 16.95 4.23255 17.3333 4.54922 17.65C4.86589 17.9667 5.24922 18.125 5.69922 18.125V18.125ZM2.69922 15.5H3.34922C3.48255 15.0667 3.77022 14.6877 4.21222 14.363C4.65355 14.0377 5.14922 13.875 5.69922 13.875C6.21589 13.875 6.69922 14.0333 7.14922 14.35C7.59922 14.6667 7.89922 15.05 8.04922 15.5H15.5492V6H3.29922C3.14922 6 3.01189 6.06267 2.88722 6.188C2.76189 6.31267 2.69922 6.45833 2.69922 6.625V15.5ZM18.0742 18.125C18.5242 18.125 18.9076 17.9667 19.2242 17.65C19.5409 17.3333 19.6992 16.95 19.6992 16.5C19.6992 16.05 19.5409 15.6667 19.2242 15.35C18.9076 15.0333 18.5242 14.875 18.0742 14.875C17.6242 14.875 17.2409 15.0333 16.9242 15.35C16.6076 15.6667 16.4492 16.05 16.4492 16.5C16.4492 16.95 16.6076 17.3333 16.9242 17.65C17.2409 17.9667 17.6242 18.125 18.0742 18.125ZM16.5492 13.5H21.2492L18.2992 9.625H16.5492V13.5Z" fill="black"/>
</svg>
